<?xml version="1.0" standalone="no"?>
<!DOCTYPE svg PUBLIC "-//W3C//DTD SVG 20010904//EN"
 "http://www.w3.org/TR/2001/REC-SVG-20010904/DTD/svg10.dtd">
<svg version="1.0" xmlns="http://www.w3.org/2000/svg"
 width="260.000000pt" height="260.000000pt" viewBox="0 0 260.000000 260.000000"
 preserveAspectRatio="xMidYMid meet">

<g transform="translate(0.000000,260.000000) scale(0.100000,-0.100000)"
fill="#000000" stroke="none">
<path d="M1100 2495 c-255 -40 -486 -161 -667 -348 -220 -228 -333 -504 -333
-817 0 -184 38 -360 115 -527 37 -80 56 -101 24 -27 -11 26 -18 48 -17 49 2 1
52 32 111 69 115 72 202 116 228 116 9 0 38 -17 65 -39 53 -41 243 -170 284
-191 23 -13 7 -17 -170 -46 -197 -32 -473 -88 -517 -105 -21 -8 -22 -11 -12
-31 21 -41 114 -151 190 -225 181 -177 389 -289 639 -343 30 -7 68 -16 84 -21
16 -5 92 -9 168 -9 119 0 157 4 261 29 282 68 471 171 662 365 99 100 215 252
215 282 0 6 -15 14 -32 17 -18 3 -85 14 -148 26 -63 11 -141 23 -172 26 -32 4
-61 12 -66 19 -9 10 -13 38 -29 173 l-5 53 61 59 c42 40 71 80 94 127 29 64
32 77 32 169 0 88 -3 107 -27 158 -53 113 -127 181 -243 223 -66 24 -63 20
-105 124 -97 241 -349 381 -607 336 -348 -60 -552 -415 -426 -738 l31 -77 -41
-56 c-40 -54 -42 -55 -90 -55 -60 0 -79 -10 -106 -55 -11 -19 -27 -35 -35 -35
-45 0 -221 -192 -278 -304 l-21 -41 -23 62 c-62 166 -83 423 -49 615 52 299
238 588 486 756 133 89 273 146 436 179 107 20 341 23 428 5 244 -52 444 -161
620 -337 201 -200 316 -432 347 -698 20 -171 -12 -365 -96 -575 -18 -45 -32
-82 -30 -82 9 0 55 106 88 202 51 150 68 243 67 383 0 186 -35 326 -127 505
-244 474 -749 735 -1264 655z m363 -358 c81 -31 136 -68 200 -133 50 -51 127
-190 127 -229 0 -20 -6 -23 -62 -28 -35 -3 -74 -9 -87 -13 -23 -7 -24 -6 -18
30 6 39 -16 116 -34 116 -4 0 -26 24 -48 54 -31 42 -56 62 -107 87 -59 29 -76
33 -148 33 -67 0 -91 -5 -136 -26 -70 -34 -97 -59 -153 -144 -40 -60 -46 -78
-52 -141 -6 -59 -4 -77 9 -98 l16 -25 -60 -30 c-63 -32 -82 -58 -105 -145 l-8
-30 -18 42 c-31 68 -44 186 -29 272 33 198 198 378 393 427 84 22 238 12 320
-19z m-37 -133 c23 -13 62 -47 88 -75 37 -42 46 -58 46 -89 0 -54 -25 -73 -87
-64 -36 4 -58 2 -79 -9 -25 -13 -33 -13 -54 -1 -17 9 -60 13 -127 14 -56 0
-113 4 -127 10 -34 12 -35 34 -1 26 24 -6 24 -6 8 21 -14 27 -14 31 13 87 35
72 61 93 134 105 74 13 136 4 186 -25z m152 -342 l3 -72 -44 -19 c-58 -25 -77
-57 -75 -123 1 -43 2 -46 5 -15 3 30 8 37 26 37 12 0 29 5 37 10 11 8 8 9 -12
4 -23 -5 -28 -3 -28 13 0 26 36 63 61 63 17 0 20 -5 16 -22 -3 -13 -9 -45 -13
-73 -4 -27 -33 -105 -65 -172 -62 -132 -81 -149 -135 -124 -14 6 -33 11 -43
11 -19 0 -72 51 -91 88 -9 18 -9 35 0 73 12 48 11 51 -21 100 l-32 51 23 43
c21 38 22 46 11 73 -7 17 -21 38 -32 48 -28 25 -23 33 16 27 31 -5 35 -3 35
17 0 18 4 21 23 16 12 -4 36 -9 52 -13 17 -3 41 -14 54 -24 24 -19 52 -16 32
4 -15 15 -14 27 3 27 8 0 16 -6 19 -14 12 -30 43 -37 70 -16 14 11 32 20 41
20 9 0 21 9 28 20 22 34 33 16 36 -58z m303 48 c131 -45 211 -125 254 -259 24
-75 16 -190 -18 -265 -27 -59 -106 -151 -138 -161 -12 -4 -31 2 -50 15 -25 19
-30 28 -27 59 2 29 7 37 26 39 16 2 27 14 34 33 5 16 14 29 19 29 16 0 33 44
40 105 7 54 5 65 -26 130 -32 66 -38 72 -97 103 -41 21 -78 33 -103 33 -22 0
-67 2 -101 5 -47 4 -63 2 -73 -10 -8 -9 -17 -16 -22 -16 -10 0 -12 58 -3 113
6 34 11 38 53 51 68 21 162 19 232 -4z m-744 -45 c3 -9 2 -19 -1 -23 -8 -8
-38 10 -44 26 -6 18 38 14 45 -3z m-68 -41 c12 -15 21 -33 21 -40 0 -21 -28
-17 -40 6 -6 11 -20 20 -32 20 -20 0 -21 1 -3 20 23 26 29 25 54 -6z m-103
-46 c6 -10 -9 -27 -45 -48 -12 -6 -5 -22 34 -80 48 -69 96 -119 180 -187 58
-48 34 -63 -31 -19 -88 59 -234 239 -234 288 0 8 17 24 38 36 43 25 48 26 58
10z m767 -14 c3 -4 -4 -15 -16 -25 -22 -18 -22 -18 20 -16 31 1 43 6 46 19 5
19 57 26 57 8 0 -5 -7 -10 -15 -10 -8 0 -15 -6 -15 -14 0 -19 37 -27 51 -10
17 21 31 17 19 -5 -16 -30 -12 -36 10 -16 17 15 24 16 46 7 27 -13 24 -32 -5
-32 -10 0 -24 -6 -30 -14 -10 -12 -7 -15 16 -18 20 -2 29 -9 31 -25 2 -16 -2
-23 -13 -23 -23 0 -16 -44 8 -48 12 -3 22 8 33 34 12 29 18 34 25 23 12 -19
11 -59 -1 -59 -6 0 -20 -9 -32 -20 -19 -17 -24 -18 -37 -6 -9 8 -29 16 -46 18
-23 2 -29 7 -27 22 4 22 -17 17 -32 -8 -14 -21 14 -41 59 -41 24 0 31 -5 38
-31 11 -37 -6 -81 -38 -98 -30 -17 -30 -17 -19 -24 6 -4 13 -29 16 -55 5 -45
4 -47 -16 -41 -11 4 -24 11 -28 17 -4 7 -16 6 -37 -3 -25 -10 -34 -10 -46 0
-12 10 -26 9 -71 -5 -30 -9 -64 -15 -74 -12 -11 3 -20 1 -20 -4 0 -5 29 -9 64
-9 82 0 100 -20 19 -21 l-58 -1 52 -8 c32 -5 75 -22 113 -45 34 -20 64 -34 68
-30 9 9 -23 33 -70 52 -21 8 -38 18 -38 22 0 13 58 41 84 41 30 0 105 -27 125
-46 11 -10 12 -16 3 -27 -9 -10 -6 -23 9 -55 12 -23 23 -69 26 -102 5 -51 3
-60 -11 -60 -9 0 -66 43 -128 95 -99 85 -128 105 -128 91 0 -6 147 -135 184
-161 l28 -20 -111 9 c-61 5 -111 13 -111 17 0 8 37 19 70 19 24 0 23 2 -15 35
-60 54 -176 135 -192 135 -21 0 -15 20 9 29 l23 8 -23 7 c-32 10 -72 84 -72
132 1 36 2 38 15 20 8 -11 15 -16 15 -11 0 5 -7 17 -17 27 -13 15 -14 23 -5
43 6 14 9 32 6 40 -12 31 7 82 43 119 29 28 44 36 73 36 24 0 43 7 55 20 10
11 31 20 47 20 15 0 28 4 28 10 0 17 -93 4 -107 -16 -7 -10 -16 -14 -20 -11
-4 4 -1 13 5 19 23 23 12 31 -11 10 -24 -23 -45 -19 -26 5 14 16 -3 17 -19 1
-9 -9 -12 -7 -12 10 0 12 5 22 12 22 6 0 20 7 30 16 14 13 21 14 32 5 12 -10
17 -8 26 8 10 20 40 28 53 15z m265 -301 c3 -22 2 -22 -28 -6 -24 12 -29 18
-19 24 22 14 44 6 47 -18z m-1183 -62 c108 -33 134 -45 156 -71 23 -27 29 -29
52 -21 18 7 24 15 20 29 -5 22 -31 37 -83 50 -22 5 -36 15 -39 27 -3 16 2 17
45 12 126 -15 204 -47 204 -81 0 -17 -130 -86 -162 -86 -14 0 -35 12 -49 26
-28 30 -66 48 -198 93 -76 26 -100 30 -118 22 -28 -13 -29 -31 -5 -61 l19 -23
21 21 c36 36 67 29 106 -26 68 -94 154 -119 279 -79 l78 25 10 -26 c25 -66 43
-92 81 -117 65 -43 147 -113 141 -119 -4 -3 -41 -6 -84 -6 -43 0 -135 -5 -204
-11 l-126 -11 -101 68 c-137 92 -188 145 -237 243 -47 93 -49 106 -19 138 30
32 61 30 213 -16z m468 -51 l25 -20 5 21 c9 33 31 17 33 -24 2 -20 8 -45 13
-56 6 -11 11 -28 11 -39 0 -13 14 -25 40 -37 23 -10 44 -24 48 -31 6 -10 17
-11 49 -2 52 13 80 6 116 -28 44 -41 35 -73 -28 -95 -75 -26 -114 -24 -171 12
-27 17 -59 40 -71 52 -13 11 -25 18 -28 15 -3 -2 30 -31 72 -62 l77 -58 61 7
c52 6 110 22 178 50 10 4 17 3 17 -4 0 -25 -93 -55 -182 -59 -80 -4 -91 -2
-130 21 -24 14 -73 52 -111 84 -37 32 -83 71 -102 87 -34 27 -55 70 -41 84 4
3 11 0 16 -8 7 -11 10 -8 10 14 0 25 2 27 16 16 13 -12 14 -10 3 13 -15 33 -5
46 21 29 28 -17 36 -15 17 6 -16 17 -14 32 3 32 4 0 19 -9 33 -20z m160 -26
c15 -16 -8 -34 -44 -34 -32 0 -39 3 -39 20 0 17 7 20 38 20 21 0 41 -3 45 -6z
m55 -115 c22 -35 0 -42 -46 -16 -46 26 -45 37 2 37 21 0 36 -7 44 -21z m-831
-385 c2 -7 3 -21 1 -31 -4 -15 -7 -13 -18 10 -12 24 -19 28 -49 25 -31 -3 -36
-7 -39 -30 -3 -24 2 -30 35 -45 82 -37 102 -76 62 -127 -16 -20 -29 -26 -60
-26 -55 0 -79 15 -79 48 l0 27 20 -32 c15 -25 27 -33 49 -33 33 0 61 22 61 49
0 22 -15 36 -72 64 -48 25 -59 54 -34 92 22 33 111 40 123 9z m843 -29 l0 -54
30 17 c48 27 64 9 68 -74 2 -39 8 -72 15 -76 7 -4 -6 -7 -28 -7 -22 0 -34 3
-27 6 7 3 12 26 12 63 0 64 -12 82 -47 69 -20 -7 -23 -15 -23 -68 0 -38 4 -61
13 -64 6 -3 -6 -5 -28 -5 -22 0 -34 2 -27 5 17 7 17 214 0 231 -9 9 -6 12 15
12 26 0 27 -2 27 -55z m-414 -67 c36 -105 41 -113 67 -116 l27 -3 0 65 c0 39
-5 68 -12 72 -7 5 -3 10 12 16 15 5 26 5 30 -2 4 -6 16 -6 37 2 49 18 63 0 63
-82 0 -45 4 -70 13 -73 6 -3 -6 -5 -28 -5 -22 0 -34 2 -27 5 8 3 12 27 12 68
0 68 -13 85 -51 65 -15 -9 -19 -22 -19 -70 0 -37 4 -60 13 -63 6 -3 -28 -6
-78 -6 -58 0 -85 3 -76 8 12 8 13 18 5 48 -8 34 -12 38 -46 41 -34 3 -37 1
-48 -34 -11 -33 -11 -39 6 -51 16 -12 14 -13 -19 -13 l-38 0 20 28 c10 15 34
69 51 120 18 50 36 92 40 92 4 0 25 -51 46 -112z m-321 34 c31 -6 31 -12 2
-12 -27 0 -27 -1 -27 -66 l0 -66 27 7 c23 5 25 4 14 -9 -16 -19 -57 -21 -67
-5 -4 7 -6 41 -5 77 1 54 -1 63 -14 59 -24 -10 -18 5 13 29 24 20 28 21 32 6
3 -9 14 -19 25 -20z m655 1 c11 3 20 1 20 -4 0 -5 -11 -9 -25 -9 -24 0 -25 -2
-25 -66 0 -65 0 -66 25 -62 21 4 23 3 13 -9 -6 -8 -23 -13 -37 -11 -25 3 -26
6 -29 76 -2 43 -7 70 -12 67 -18 -11 -10 8 12 32 l22 24 8 -22 c6 -15 14 -20
28 -16z m354 -19 c14 -15 26 -38 26 -51 0 -31 -25 -79 -45 -87 -93 -35 -168
76 -94 138 40 34 79 33 113 0z m88 16 c2 -7 14 -6 35 2 48 18 63 0 63 -78 0
-49 4 -65 18 -73 13 -8 7 -10 -28 -10 -25 0 -39 3 -32 6 8 3 12 27 12 68 0 67
-8 79 -47 64 -20 -7 -23 -15 -23 -68 0 -38 4 -61 13 -64 6 -3 -6 -5 -28 -5
-22 0 -34 2 -27 5 8 3 12 28 12 74 0 48 -4 69 -12 70 -7 0 -4 4 7 9 27 12 33
12 37 0z m173 -6 c0 -19 29 -94 36 -94 12 0 31 68 25 88 -5 14 -1 18 19 18 21
0 23 -2 11 -15 -8 -9 -28 -59 -46 -111 -41 -119 -46 -130 -70 -130 -24 0 -36
18 -22 32 8 8 15 8 25 0 11 -9 16 -7 25 14 18 38 15 59 -21 137 l-34 73 26 -2
c14 0 26 -5 26 -10z m-1187 -131 c5 -17 -26 -29 -40 -15 -6 6 -7 15 -3 22 9
14 37 9 43 -7z m7 -123 c4 -6 -4 -9 -17 -7 -17 1 -24 -4 -26 -22 -3 -21 -1
-23 23 -17 17 4 24 3 20 -4 -3 -5 -17 -10 -30 -10 -28 0 -43 34 -25 55 14 17
46 20 55 5z m64 -21 c14 -41 14 -44 -4 -29 -12 10 -18 10 -30 0 -18 -15 -18
-12 -4 29 6 17 15 31 19 31 4 0 13 -14 19 -31z m74 24 c-7 -2 -14 -19 -14 -36
l-2 -32 -4 30 c-3 16 -10 33 -16 37 -7 4 2 7 18 7 17 0 24 -3 18 -6z m57 -23
c10 0 21 8 23 18 3 9 5 -1 6 -23 0 -32 -2 -36 -10 -22 -5 9 -16 17 -24 17 -7
0 -16 -8 -18 -17 -3 -10 -5 0 -5 22 0 22 2 32 5 23 2 -10 13 -18 23 -18z m113
9 c15 -24 1 -49 -27 -49 -31 0 -40 14 -32 46 8 29 42 30 59 3z m55 -42 c12 -3
10 -5 -5 -6 -20 -1 -23 3 -21 37 1 36 1 36 5 5 3 -19 11 -34 21 -36z m52 22
c0 -16 -4 -29 -10 -29 -5 0 -10 16 -10 36 0 21 4 33 10 29 6 -3 10 -19 10 -36z
m75 31 c4 -6 -4 -9 -17 -7 -17 1 -24 -4 -26 -22 -3 -21 0 -23 22 -19 14 3 26
1 26 -3 0 -16 -58 -10 -64 7 -13 35 40 75 59 44z m110 0 c4 -6 -4 -9 -17 -7
-17 1 -24 -4 -26 -22 -3 -21 -1 -23 25 -17 21 6 25 5 17 -4 -17 -17 -58 -8
-62 13 -7 35 46 65 63 37z m53 -20 c6 0 13 8 15 18 3 9 5 -1 5 -23 0 -22 -2
-32 -5 -22 -5 21 -33 23 -33 2 0 -8 -4 -15 -10 -15 -5 0 -10 17 -10 38 1 33 2
35 14 20 7 -10 18 -18 24 -18z m62 -6 c0 -37 28 -30 33 9 l4 32 1 -37 c2 -39
-11 -51 -40 -36 -11 5 -18 20 -18 39 0 18 4 28 10 24 6 -3 10 -17 10 -31z
m105 -1 c1 -33 -9 -44 -18 -20 -4 9 -8 8 -16 -3 -8 -12 -11 -7 -11 23 0 34 3
38 23 35 17 -2 22 -10 22 -35z m79 29 c3 -5 -5 -8 -17 -8 -16 1 -22 -5 -22
-19 0 -14 6 -20 23 -19 12 0 22 -3 22 -8 0 -5 -12 -8 -27 -6 -28 3 -40 25 -29
54 6 15 41 19 50 6z m56 -22 c10 0 21 8 23 18 3 9 5 -1 6 -23 0 -32 -2 -36
-10 -22 -5 9 -16 17 -24 17 -7 0 -16 -8 -18 -17 -3 -10 -5 0 -5 22 0 22 2 32
5 23 2 -10 13 -18 23 -18z"/>
<path d="M1295 1537 c44 -11 50 -15 53 -41 4 -29 4 -29 -44 -23 -28 3 -41 1
-33 -4 19 -12 86 -11 94 1 9 15 28 12 22 -3 -3 -7 1 -38 8 -68 l12 -54 8 66
c5 51 4 73 -9 96 -19 38 -33 43 -104 42 l-57 -1 50 -11z"/>
<path d="M1350 1348 c0 -9 5 -20 10 -23 6 -3 10 -13 10 -21 0 -11 -9 -14 -37
-10 -30 4 -33 4 -13 -3 14 -5 54 -9 90 -9 36 0 57 2 47 5 -11 3 -16 11 -13 18
3 9 0 12 -9 9 -16 -6 -55 13 -72 35 -11 15 -12 14 -13 -1z"/>
<path d="M1335 1240 c-12 -19 1 -22 47 -12 31 7 36 10 16 11 -14 1 -33 4 -41
7 -8 3 -18 0 -22 -6z"/>
<path d="M1782 1454 c-22 -15 -30 -44 -12 -44 6 0 10 5 10 12 0 7 6 6 18 -4
23 -20 92 -21 92 -2 0 18 -46 19 -54 2 -3 -7 -4 -1 -1 13 3 19 0 29 -11 33
-20 8 -16 9 -42 -10z"/>
<path d="M1604 1348 c-5 -8 -2 -9 9 -5 9 3 35 0 57 -8 44 -15 55 -5 15 13 -33
15 -72 15 -81 0z"/>
<path d="M1878 1250 c-4 -24 -2 -27 9 -19 15 13 18 49 4 49 -5 0 -11 -13 -13
-30z"/>
<path d="M1607 1258 c2 -5 17 -8 34 -8 16 0 29 3 29 8 0 4 -15 7 -34 7 -19 0
-32 -3 -29 -7z"/>
<path d="M1585 1155 c-22 -8 -41 -15 -42 -15 -2 0 -3 -5 -3 -11 0 -5 10 -3 22
5 12 9 35 16 50 16 16 0 28 5 28 10 0 13 -6 12 -55 -5z"/>
<path d="M1570 1100 c0 -5 4 -10 9 -10 6 0 13 5 16 10 3 6 -1 10 -9 10 -9 0
-16 -4 -16 -10z"/>
<path d="M1480 890 c0 -5 9 -10 21 -10 11 0 17 5 14 10 -3 6 -13 10 -21 10 -8
0 -14 -4 -14 -10z"/>
<path d="M1026 567 c-3 -14 -9 -32 -12 -41 -5 -12 0 -16 21 -16 26 0 27 2 21
32 -9 44 -22 55 -30 25z"/>
<path d="M1690 541 c-14 -27 -13 -104 2 -119 19 -19 56 -14 69 9 27 51 6 129
-36 129 -14 0 -29 -8 -35 -19z"/>
<path d="M1124 285 c-7 -18 3 -35 21 -35 21 0 28 19 15 35 -16 19 -29 19 -36
0z"/>
<path d="M1655 290 c-3 -5 1 -10 9 -10 9 0 16 5 16 10 0 6 -4 10 -9 10 -6 0
-13 -4 -16 -10z"/>
</g>
</svg>
